<?xml version="1.0" encoding="UTF-8" ?>
<svg version="1.1" width="44" height="20" xmlns="http://www.w3.org/2000/svg" shape-rendering="crispEdges">
<rect x="16" y="0" width="1" height="1" fill="#1D2B53" />
<rect x="17" y="0" width="1" height="1" fill="#1D2B53" />
<rect x="26" y="0" width="1" height="1" fill="#1D2B53" />
<rect x="27" y="0" width="1" height="1" fill="#1D2B53" />
<rect x="36" y="0" width="1" height="1" fill="#1D2B53" />
<rect x="37" y="0" width="1" height="1" fill="#1D2B53" />
<rect x="38" y="0" width="1" height="1" fill="#1D2B53" />
<rect x="39" y="0" width="1" height="1" fill="#1D2B53" />
<rect x="16" y="1" width="1" height="1" fill="#1D2B53" />
<rect x="17" y="1" width="1" height="1" fill="#1D2B53" />
<rect x="26" y="1" width="1" height="1" fill="#1D2B53" />
<rect x="27" y="1" width="1" height="1" fill="#1D2B53" />
<rect x="36" y="1" width="1" height="1" fill="#1D2B53" />
<rect x="37" y="1" width="1" height="1" fill="#1D2B53" />
<rect x="38" y="1" width="1" height="1" fill="#1D2B53" />
<rect x="39" y="1" width="1" height="1" fill="#1D2B53" />
<rect x="40" y="1" width="1" height="1" fill="#1D2B53" />
<rect x="16" y="2" width="1" height="1" fill="#1D2B53" />
<rect x="17" y="2" width="1" height="1" fill="#1D2B53" />
<rect x="26" y="2" width="1" height="1" fill="#1D2B53" />
<rect x="27" y="2" width="1" height="1" fill="#1D2B53" />
<rect x="36" y="2" width="1" height="1" fill="#1D2B53" />
<rect x="37" y="2" width="1" height="1" fill="#1D2B53" />
<rect x="38" y="2" width="1" height="1" fill="#1D2B53" />
<rect x="39" y="2" width="1" height="1" fill="#1D2B53" />
<rect x="40" y="2" width="1" height="1" fill="#1D2B53" />
<rect x="41" y="2" width="1" height="1" fill="#1D2B53" />
<rect x="16" y="3" width="1" height="1" fill="#1D2B53" />
<rect x="17" y="3" width="1" height="1" fill="#1D2B53" />
<rect x="26" y="3" width="1" height="1" fill="#1D2B53" />
<rect x="27" y="3" width="1" height="1" fill="#1D2B53" />
<rect x="36" y="3" width="1" height="1" fill="#1D2B53" />
<rect x="37" y="3" width="1" height="1" fill="#1D2B53" />
<rect x="38" y="3" width="1" height="1" fill="#1D2B53" />
<rect x="39" y="3" width="1" height="1" fill="#1D2B53" />
<rect x="40" y="3" width="1" height="1" fill="#1D2B53" />
<rect x="41" y="3" width="1" height="1" fill="#1D2B53" />
<rect x="42" y="3" width="1" height="1" fill="#1D2B53" />
<rect x="16" y="4" width="1" height="1" fill="#1D2B53" />
<rect x="17" y="4" width="1" height="1" fill="#1D2B53" />
<rect x="26" y="4" width="1" height="1" fill="#1D2B53" />
<rect x="27" y="4" width="1" height="1" fill="#1D2B53" />
<rect x="36" y="4" width="1" height="1" fill="#1D2B53" />
<rect x="37" y="4" width="1" height="1" fill="#1D2B53" />
<rect x="38" y="4" width="1" height="1" fill="#1D2B53" />
<rect x="39" y="4" width="1" height="1" fill="#1D2B53" />
<rect x="40" y="4" width="1" height="1" fill="#1D2B53" />
<rect x="41" y="4" width="1" height="1" fill="#1D2B53" />
<rect x="42" y="4" width="1" height="1" fill="#1D2B53" />
<rect x="43" y="4" width="1" height="1" fill="#1D2B53" />
<rect x="16" y="5" width="1" height="1" fill="#1D2B53" />
<rect x="17" y="5" width="1" height="1" fill="#1D2B53" />
<rect x="26" y="5" width="1" height="1" fill="#1D2B53" />
<rect x="27" y="5" width="1" height="1" fill="#1D2B53" />
<rect x="36" y="5" width="1" height="1" fill="#1D2B53" />
<rect x="37" y="5" width="1" height="1" fill="#1D2B53" />
<rect x="38" y="5" width="1" height="1" fill="#1D2B53" />
<rect x="39" y="5" width="1" height="1" fill="#1D2B53" />
<rect x="40" y="5" width="1" height="1" fill="#1D2B53" />
<rect x="41" y="5" width="1" height="1" fill="#1D2B53" />
<rect x="42" y="5" width="1" height="1" fill="#1D2B53" />
<rect x="43" y="5" width="1" height="1" fill="#1D2B53" />
<rect x="16" y="6" width="1" height="1" fill="#1D2B53" />
<rect x="17" y="6" width="1" height="1" fill="#1D2B53" />
<rect x="26" y="6" width="1" height="1" fill="#1D2B53" />
<rect x="27" y="6" width="1" height="1" fill="#1D2B53" />
<rect x="36" y="6" width="1" height="1" fill="#1D2B53" />
<rect x="37" y="6" width="1" height="1" fill="#1D2B53" />
<rect x="39" y="6" width="1" height="1" fill="#1D2B53" />
<rect x="40" y="6" width="1" height="1" fill="#1D2B53" />
<rect x="41" y="6" width="1" height="1" fill="#1D2B53" />
<rect x="42" y="6" width="1" height="1" fill="#1D2B53" />
<rect x="43" y="6" width="1" height="1" fill="#1D2B53" />
<rect x="16" y="7" width="1" height="1" fill="#1D2B53" />
<rect x="17" y="7" width="1" height="1" fill="#1D2B53" />
<rect x="26" y="7" width="1" height="1" fill="#1D2B53" />
<rect x="27" y="7" width="1" height="1" fill="#1D2B53" />
<rect x="36" y="7" width="1" height="1" fill="#1D2B53" />
<rect x="37" y="7" width="1" height="1" fill="#1D2B53" />
<rect x="40" y="7" width="1" height="1" fill="#1D2B53" />
<rect x="41" y="7" width="1" height="1" fill="#1D2B53" />
<rect x="42" y="7" width="1" height="1" fill="#1D2B53" />
<rect x="43" y="7" width="1" height="1" fill="#1D2B53" />
<rect x="16" y="8" width="1" height="1" fill="#1D2B53" />
<rect x="17" y="8" width="1" height="1" fill="#1D2B53" />
<rect x="26" y="8" width="1" height="1" fill="#1D2B53" />
<rect x="27" y="8" width="1" height="1" fill="#1D2B53" />
<rect x="36" y="8" width="1" height="1" fill="#1D2B53" />
<rect x="37" y="8" width="1" height="1" fill="#1D2B53" />
<rect x="41" y="8" width="1" height="1" fill="#1D2B53" />
<rect x="42" y="8" width="1" height="1" fill="#1D2B53" />
<rect x="43" y="8" width="1" height="1" fill="#1D2B53" />
<rect x="16" y="9" width="1" height="1" fill="#1D2B53" />
<rect x="17" y="9" width="1" height="1" fill="#1D2B53" />
<rect x="26" y="9" width="1" height="1" fill="#1D2B53" />
<rect x="27" y="9" width="1" height="1" fill="#1D2B53" />
<rect x="36" y="9" width="1" height="1" fill="#1D2B53" />
<rect x="37" y="9" width="1" height="1" fill="#1D2B53" />
<rect x="42" y="9" width="1" height="1" fill="#1D2B53" />
<rect x="43" y="9" width="1" height="1" fill="#1D2B53" />
<rect x="16" y="10" width="1" height="1" fill="#1D2B53" />
<rect x="17" y="10" width="1" height="1" fill="#1D2B53" />
<rect x="26" y="10" width="1" height="1" fill="#1D2B53" />
<rect x="27" y="10" width="1" height="1" fill="#1D2B53" />
<rect x="36" y="10" width="1" height="1" fill="#1D2B53" />
<rect x="37" y="10" width="1" height="1" fill="#1D2B53" />
<rect x="15" y="11" width="1" height="1" fill="#1D2B53" />
<rect x="16" y="11" width="1" height="1" fill="#1D2B53" />
<rect x="17" y="11" width="1" height="1" fill="#1D2B53" />
<rect x="25" y="11" width="1" height="1" fill="#1D2B53" />
<rect x="26" y="11" width="1" height="1" fill="#1D2B53" />
<rect x="27" y="11" width="1" height="1" fill="#1D2B53" />
<rect x="35" y="11" width="1" height="1" fill="#1D2B53" />
<rect x="36" y="11" width="1" height="1" fill="#1D2B53" />
<rect x="37" y="11" width="1" height="1" fill="#1D2B53" />
<rect x="2" y="12" width="1" height="1" fill="#1D2B53" />
<rect x="3" y="12" width="1" height="1" fill="#1D2B53" />
<rect x="4" y="12" width="1" height="1" fill="#1D2B53" />
<rect x="5" y="12" width="1" height="1" fill="#1D2B53" />
<rect x="12" y="12" width="1" height="1" fill="#1D2B53" />
<rect x="13" y="12" width="1" height="1" fill="#1D2B53" />
<rect x="14" y="12" width="1" height="1" fill="#1D2B53" />
<rect x="15" y="12" width="1" height="1" fill="#1D2B53" />
<rect x="16" y="12" width="1" height="1" fill="#1D2B53" />
<rect x="17" y="12" width="1" height="1" fill="#1D2B53" />
<rect x="22" y="12" width="1" height="1" fill="#1D2B53" />
<rect x="23" y="12" width="1" height="1" fill="#1D2B53" />
<rect x="24" y="12" width="1" height="1" fill="#1D2B53" />
<rect x="25" y="12" width="1" height="1" fill="#1D2B53" />
<rect x="26" y="12" width="1" height="1" fill="#1D2B53" />
<rect x="27" y="12" width="1" height="1" fill="#1D2B53" />
<rect x="32" y="12" width="1" height="1" fill="#1D2B53" />
<rect x="33" y="12" width="1" height="1" fill="#1D2B53" />
<rect x="34" y="12" width="1" height="1" fill="#1D2B53" />
<rect x="35" y="12" width="1" height="1" fill="#1D2B53" />
<rect x="36" y="12" width="1" height="1" fill="#1D2B53" />
<rect x="37" y="12" width="1" height="1" fill="#1D2B53" />
<rect x="1" y="13" width="1" height="1" fill="#1D2B53" />
<rect x="2" y="13" width="1" height="1" fill="#1D2B53" />
<rect x="3" y="13" width="1" height="1" fill="#1D2B53" />
<rect x="4" y="13" width="1" height="1" fill="#1D2B53" />
<rect x="5" y="13" width="1" height="1" fill="#1D2B53" />
<rect x="6" y="13" width="1" height="1" fill="#1D2B53" />
<rect x="11" y="13" width="1" height="1" fill="#1D2B53" />
<rect x="12" y="13" width="1" height="1" fill="#1D2B53" />
<rect x="13" y="13" width="1" height="1" fill="#1D2B53" />
<rect x="14" y="13" width="1" height="1" fill="#1D2B53" />
<rect x="15" y="13" width="1" height="1" fill="#1D2B53" />
<rect x="16" y="13" width="1" height="1" fill="#1D2B53" />
<rect x="17" y="13" width="1" height="1" fill="#1D2B53" />
<rect x="21" y="13" width="1" height="1" fill="#1D2B53" />
<rect x="22" y="13" width="1" height="1" fill="#1D2B53" />
<rect x="23" y="13" width="1" height="1" fill="#1D2B53" />
<rect x="24" y="13" width="1" height="1" fill="#1D2B53" />
<rect x="25" y="13" width="1" height="1" fill="#1D2B53" />
<rect x="26" y="13" width="1" height="1" fill="#1D2B53" />
<rect x="27" y="13" width="1" height="1" fill="#1D2B53" />
<rect x="31" y="13" width="1" height="1" fill="#1D2B53" />
<rect x="32" y="13" width="1" height="1" fill="#1D2B53" />
<rect x="33" y="13" width="1" height="1" fill="#1D2B53" />
<rect x="34" y="13" width="1" height="1" fill="#1D2B53" />
<rect x="35" y="13" width="1" height="1" fill="#1D2B53" />
<rect x="36" y="13" width="1" height="1" fill="#1D2B53" />
<rect x="37" y="13" width="1" height="1" fill="#1D2B53" />
<rect x="0" y="14" width="1" height="1" fill="#1D2B53" />
<rect x="1" y="14" width="1" height="1" fill="#1D2B53" />
<rect x="2" y="14" width="1" height="1" fill="#1D2B53" />
<rect x="5" y="14" width="1" height="1" fill="#1D2B53" />
<rect x="6" y="14" width="1" height="1" fill="#1D2B53" />
<rect x="7" y="14" width="1" height="1" fill="#1D2B53" />
<rect x="10" y="14" width="1" height="1" fill="#1D2B53" />
<rect x="11" y="14" width="1" height="1" fill="#1D2B53" />
<rect x="12" y="14" width="1" height="1" fill="#1D2B53" />
<rect x="15" y="14" width="1" height="1" fill="#1D2B53" />
<rect x="16" y="14" width="1" height="1" fill="#1D2B53" />
<rect x="17" y="14" width="1" height="1" fill="#1D2B53" />
<rect x="20" y="14" width="1" height="1" fill="#1D2B53" />
<rect x="21" y="14" width="1" height="1" fill="#1D2B53" />
<rect x="22" y="14" width="1" height="1" fill="#1D2B53" />
<rect x="23" y="14" width="1" height="1" fill="#1D2B53" />
<rect x="24" y="14" width="1" height="1" fill="#1D2B53" />
<rect x="25" y="14" width="1" height="1" fill="#1D2B53" />
<rect x="26" y="14" width="1" height="1" fill="#1D2B53" />
<rect x="27" y="14" width="1" height="1" fill="#1D2B53" />
<rect x="30" y="14" width="1" height="1" fill="#1D2B53" />
<rect x="31" y="14" width="1" height="1" fill="#1D2B53" />
<rect x="32" y="14" width="1" height="1" fill="#1D2B53" />
<rect x="33" y="14" width="1" height="1" fill="#1D2B53" />
<rect x="34" y="14" width="1" height="1" fill="#1D2B53" />
<rect x="35" y="14" width="1" height="1" fill="#1D2B53" />
<rect x="36" y="14" width="1" height="1" fill="#1D2B53" />
<rect x="37" y="14" width="1" height="1" fill="#1D2B53" />
<rect x="0" y="15" width="1" height="1" fill="#1D2B53" />
<rect x="1" y="15" width="1" height="1" fill="#1D2B53" />
<rect x="6" y="15" width="1" height="1" fill="#1D2B53" />
<rect x="7" y="15" width="1" height="1" fill="#1D2B53" />
<rect x="10" y="15" width="1" height="1" fill="#1D2B53" />
<rect x="11" y="15" width="1" height="1" fill="#1D2B53" />
<rect x="16" y="15" width="1" height="1" fill="#1D2B53" />
<rect x="17" y="15" width="1" height="1" fill="#1D2B53" />
<rect x="20" y="15" width="1" height="1" fill="#1D2B53" />
<rect x="21" y="15" width="1" height="1" fill="#1D2B53" />
<rect x="22" y="15" width="1" height="1" fill="#1D2B53" />
<rect x="23" y="15" width="1" height="1" fill="#1D2B53" />
<rect x="24" y="15" width="1" height="1" fill="#1D2B53" />
<rect x="25" y="15" width="1" height="1" fill="#1D2B53" />
<rect x="26" y="15" width="1" height="1" fill="#1D2B53" />
<rect x="27" y="15" width="1" height="1" fill="#1D2B53" />
<rect x="30" y="15" width="1" height="1" fill="#1D2B53" />
<rect x="31" y="15" width="1" height="1" fill="#1D2B53" />
<rect x="32" y="15" width="1" height="1" fill="#1D2B53" />
<rect x="33" y="15" width="1" height="1" fill="#1D2B53" />
<rect x="34" y="15" width="1" height="1" fill="#1D2B53" />
<rect x="35" y="15" width="1" height="1" fill="#1D2B53" />
<rect x="36" y="15" width="1" height="1" fill="#1D2B53" />
<rect x="37" y="15" width="1" height="1" fill="#1D2B53" />
<rect x="0" y="16" width="1" height="1" fill="#1D2B53" />
<rect x="1" y="16" width="1" height="1" fill="#1D2B53" />
<rect x="6" y="16" width="1" height="1" fill="#1D2B53" />
<rect x="7" y="16" width="1" height="1" fill="#1D2B53" />
<rect x="10" y="16" width="1" height="1" fill="#1D2B53" />
<rect x="11" y="16" width="1" height="1" fill="#1D2B53" />
<rect x="16" y="16" width="1" height="1" fill="#1D2B53" />
<rect x="17" y="16" width="1" height="1" fill="#1D2B53" />
<rect x="20" y="16" width="1" height="1" fill="#1D2B53" />
<rect x="21" y="16" width="1" height="1" fill="#1D2B53" />
<rect x="22" y="16" width="1" height="1" fill="#1D2B53" />
<rect x="23" y="16" width="1" height="1" fill="#1D2B53" />
<rect x="24" y="16" width="1" height="1" fill="#1D2B53" />
<rect x="25" y="16" width="1" height="1" fill="#1D2B53" />
<rect x="26" y="16" width="1" height="1" fill="#1D2B53" />
<rect x="27" y="16" width="1" height="1" fill="#1D2B53" />
<rect x="30" y="16" width="1" height="1" fill="#1D2B53" />
<rect x="31" y="16" width="1" height="1" fill="#1D2B53" />
<rect x="32" y="16" width="1" height="1" fill="#1D2B53" />
<rect x="33" y="16" width="1" height="1" fill="#1D2B53" />
<rect x="34" y="16" width="1" height="1" fill="#1D2B53" />
<rect x="35" y="16" width="1" height="1" fill="#1D2B53" />
<rect x="36" y="16" width="1" height="1" fill="#1D2B53" />
<rect x="37" y="16" width="1" height="1" fill="#1D2B53" />
<rect x="0" y="17" width="1" height="1" fill="#1D2B53" />
<rect x="1" y="17" width="1" height="1" fill="#1D2B53" />
<rect x="2" y="17" width="1" height="1" fill="#1D2B53" />
<rect x="5" y="17" width="1" height="1" fill="#1D2B53" />
<rect x="6" y="17" width="1" height="1" fill="#1D2B53" />
<rect x="7" y="17" width="1" height="1" fill="#1D2B53" />
<rect x="10" y="17" width="1" height="1" fill="#1D2B53" />
<rect x="11" y="17" width="1" height="1" fill="#1D2B53" />
<rect x="12" y="17" width="1" height="1" fill="#1D2B53" />
<rect x="15" y="17" width="1" height="1" fill="#1D2B53" />
<rect x="16" y="17" width="1" height="1" fill="#1D2B53" />
<rect x="17" y="17" width="1" height="1" fill="#1D2B53" />
<rect x="20" y="17" width="1" height="1" fill="#1D2B53" />
<rect x="21" y="17" width="1" height="1" fill="#1D2B53" />
<rect x="22" y="17" width="1" height="1" fill="#1D2B53" />
<rect x="23" y="17" width="1" height="1" fill="#1D2B53" />
<rect x="24" y="17" width="1" height="1" fill="#1D2B53" />
<rect x="25" y="17" width="1" height="1" fill="#1D2B53" />
<rect x="26" y="17" width="1" height="1" fill="#1D2B53" />
<rect x="27" y="17" width="1" height="1" fill="#1D2B53" />
<rect x="30" y="17" width="1" height="1" fill="#1D2B53" />
<rect x="31" y="17" width="1" height="1" fill="#1D2B53" />
<rect x="32" y="17" width="1" height="1" fill="#1D2B53" />
<rect x="33" y="17" width="1" height="1" fill="#1D2B53" />
<rect x="34" y="17" width="1" height="1" fill="#1D2B53" />
<rect x="35" y="17" width="1" height="1" fill="#1D2B53" />
<rect x="36" y="17" width="1" height="1" fill="#1D2B53" />
<rect x="37" y="17" width="1" height="1" fill="#1D2B53" />
<rect x="1" y="18" width="1" height="1" fill="#1D2B53" />
<rect x="2" y="18" width="1" height="1" fill="#1D2B53" />
<rect x="3" y="18" width="1" height="1" fill="#1D2B53" />
<rect x="4" y="18" width="1" height="1" fill="#1D2B53" />
<rect x="5" y="18" width="1" height="1" fill="#1D2B53" />
<rect x="6" y="18" width="1" height="1" fill="#1D2B53" />
<rect x="11" y="18" width="1" height="1" fill="#1D2B53" />
<rect x="12" y="18" width="1" height="1" fill="#1D2B53" />
<rect x="13" y="18" width="1" height="1" fill="#1D2B53" />
<rect x="14" y="18" width="1" height="1" fill="#1D2B53" />
<rect x="15" y="18" width="1" height="1" fill="#1D2B53" />
<rect x="16" y="18" width="1" height="1" fill="#1D2B53" />
<rect x="21" y="18" width="1" height="1" fill="#1D2B53" />
<rect x="22" y="18" width="1" height="1" fill="#1D2B53" />
<rect x="23" y="18" width="1" height="1" fill="#1D2B53" />
<rect x="24" y="18" width="1" height="1" fill="#1D2B53" />
<rect x="25" y="18" width="1" height="1" fill="#1D2B53" />
<rect x="26" y="18" width="1" height="1" fill="#1D2B53" />
<rect x="31" y="18" width="1" height="1" fill="#1D2B53" />
<rect x="32" y="18" width="1" height="1" fill="#1D2B53" />
<rect x="33" y="18" width="1" height="1" fill="#1D2B53" />
<rect x="34" y="18" width="1" height="1" fill="#1D2B53" />
<rect x="35" y="18" width="1" height="1" fill="#1D2B53" />
<rect x="36" y="18" width="1" height="1" fill="#1D2B53" />
<rect x="2" y="19" width="1" height="1" fill="#1D2B53" />
<rect x="3" y="19" width="1" height="1" fill="#1D2B53" />
<rect x="4" y="19" width="1" height="1" fill="#1D2B53" />
<rect x="5" y="19" width="1" height="1" fill="#1D2B53" />
<rect x="12" y="19" width="1" height="1" fill="#1D2B53" />
<rect x="13" y="19" width="1" height="1" fill="#1D2B53" />
<rect x="14" y="19" width="1" height="1" fill="#1D2B53" />
<rect x="15" y="19" width="1" height="1" fill="#1D2B53" />
<rect x="22" y="19" width="1" height="1" fill="#1D2B53" />
<rect x="23" y="19" width="1" height="1" fill="#1D2B53" />
<rect x="24" y="19" width="1" height="1" fill="#1D2B53" />
<rect x="25" y="19" width="1" height="1" fill="#1D2B53" />
<rect x="32" y="19" width="1" height="1" fill="#1D2B53" />
<rect x="33" y="19" width="1" height="1" fill="#1D2B53" />
<rect x="34" y="19" width="1" height="1" fill="#1D2B53" />
<rect x="35" y="19" width="1" height="1" fill="#1D2B53" />
</svg>